:SAMPLES-PER-SECOND 30
:FRAME-RANGE 1-2091
:FULLY-SPECIFIED
:DEGREES
1046
root  9.99232 37.2754 5.98565 12.8317 -56.571 -11.9929
RightUpLeg  -29.2107 12.1947 6.07737
RightLeg  34.8921 -1.71585 -1.54745
RightFoot  -7.68557 -0.084852 1.02453
RightToes  5.38607e-012 1.2921e-014 -6.02303e-014
Spine  -2.78609 -5.8501 5.02029
Spine1  9.05397 -7.30181 5.84919
HEad  12.4847 34.3517 -5.91978
LeftShoulder1  1.27655 -3.055 -13.3225
LeftArm  -22.4789 -10.1314 -23.5033
LeftForeArm  -9.59545 6.23175 -3.39646
LeftHand  -0.126365 2.7312 5.02352
RightShoulder  0.557132 -1.67374 27.8451
RightArm  -33.0352 -7.45457 32.1177
RightForeArm  53.3686 -5.10225 -1.06019
RightHand  1.05524 -11.3053 -20.8309
LeftUpLeg  -3.19478 -2.38687 3.49184
LeftLeg  59.0726 -9.04737 -15.3692
LeftFoot  15.3625 4.86595 -20.7095
LeftToes  -7.20997e-011 3.75522e-011 -2.80735e-011
1047
root  8.61541 37.6382 6.9547 11.2095 -56.0037 -10.8382
RightUpLeg  -25.0477 11.163 6.24058
RightLeg  34.348 -1.73495 -1.53471
RightFoot  -10.2857 -0.07457 0.529709
RightToes  5.38607e-012 1.2921e-014 -6.02303e-014
Spine  -2.7775 -5.31436 4.98048
Spine1  8.78307 -6.62849 5.42476
HEad  14.8988 33.2798 -4.73246
LeftShoulder1  1.25 -2.9927 -13.0762
LeftArm  -21.9315 -12.2234 -24.3243
LeftForeArm  -11.0215 6.27124 -3.79355
LeftHand  -0.0443608 4.76414 4.17194
RightShoulder  0.68016 -1.29835 27.6653
RightArm  -32.7691 -5.46953 33.838
RightForeArm  54.6773 -5.10237 -0.83225
RightHand  1.02509 -11.0896 -20.9998
LeftUpLeg  -8.24937 -0.975573 3.94318
LeftLeg  64.0602 -6.14757 -12.935
LeftFoot  8.77964 2.74495 -15.6933
LeftToes  -7.20997e-011 3.75522e-011 -2.80735e-011
1048
root  7.29049 38.0993 7.91762 8.90509 -55.1418 -8.50665
RightUpLeg  -20.6506 9.37352 5.48005
RightLeg  32.4034 -1.26228 -1.11685
RightFoot  -12.0882 -0.0813351 0.0767949
RightToes  5.38607e-012 1.2921e-014 -6.02303e-014
Spine  -2.81288 -4.80859 4.21332
Spine1  8.06845 -5.97587 5.13139
HEad  17.2267 32.1035 -3.9867
LeftShoulder1  1.23012 -2.96534 -12.8219
LeftArm  -22.9718 -13.739 -25.1783
LeftForeArm  -11.073 6.19108 -3.32845
LeftHand  -0.113663 2.90102 4.72567
RightShoulder  0.754812 -1.07022 27.5814
RightArm  -31.9019 -3.45351 35.8376
RightForeArm  56.5519 -5.14627 -0.239414
RightHand  1.02304 -11.0182 -21.2104
LeftUpLeg  -13.5046 0.146498 3.52062
LeftLeg  65.23 -3.8169 -8.33379
LeftFoot  4.48251 1.68559 -12.2885
LeftToes  -7.20997e-011 3.75522e-011 -2.80735e-011
1049
root  6.0114 38.4759 8.9324 6.48694 -54.5095 -6.20313
RightUpLeg  -16.1876 7.46996 4.43913
RightLeg  30.5066 -0.508278 -0.571295
RightFoot  -13.7484 -0.0999925 -0.331641
RightToes  5.38607e-012 1.2921e-014 -6.02303e-014
Spine  -2.28472 -4.30083 3.57222
Spine1  6.75604 -5.24924 4.6676
HEad  19.3706 31.1532 -3.23473
LeftShoulder1  1.18525 -2.79157 -12.6258
LeftArm  -22.7878 -14.8111 -25.4913
LeftForeArm  -12.9626 5.39764 -3.52407
LeftHand  -0.0330067 5.09254 3.42629
RightShoulder  0.911971 -0.552241 26.9756
RightArm  -30.126 -1.63262 38.3023
RightForeArm  57.3256 -5.31384 0.885117
RightHand  0.925689 -10.4661 -21.3046
LeftUpLeg  -17.9043 1.52208 2.81933
LeftLeg  63.4755 -2.10994 -3.9705
LeftFoot  0.991668 1.00529 -9.34638
LeftToes  -7.20997e-011 3.75522e-011 -2.80735e-011
1050
root  4.74594 38.7846 9.96836 4.62085 -54.2694 -4.51733
RightUpLeg  -11.711 5.82641 3.55457
RightLeg  28.3401 0.368426 -0.0250295
RightFoot  -14.9552 -0.132031 -0.978864
RightToes  5.38607e-012 1.2921e-014 -6.02303e-014
Spine  -2.85256 -3.67433 3.76213
Spine1  6.94051 -4.30901 3.03915
HEad  20.6584 29.9497 -2.40739
LeftShoulder1  1.08743 -2.42335 -12.1181
LeftArm  -22.6231 -16.6384 -25.4709
LeftForeArm  -12.8325 4.41328 -3.84413
LeftHand  -0.0356235 4.91241 2.84634
RightShoulder  1.10265 0.0810443 26.4449
RightArm  -28.5956 1.07264 41.1852
RightForeArm  57.934 -5.44129 1.75178
RightHand  0.844134 -9.96441 -21.5691
LeftUpLeg  -21.3452 3.1677 2.38544
LeftLeg  58.9448 -0.840689 -0.957578
LeftFoot  -2.71829 0.556392 -7.15854
LeftToes  -7.20997e-011 3.75522e-011 -2.80735e-011
1051
root  3.51465 38.995 11.0118 3.39594 -54.106 -3.31305
RightUpLeg  -7.84763 4.48287 2.68202
RightLeg  26.6164 1.47626 0.569671
RightFoot  -15.9361 -0.151919 -1.10032
RightToes  5.38607e-012 1.2921e-014 -6.02303e-014
Spine  -3.13183 -2.90648 3.81549
Spine1  6.47496 -3.38982 2.11121
HEad  22.2153 28.5644 -1.67728
LeftShoulder1  1.01272 -2.10119 -11.8393
LeftArm  -22.8614 -17.9631 -25.9481
LeftForeArm  -12.3666 3.02784 -4.0017
LeftHand  -0.0392681 4.78388 3.1158
RightShoulder  1.27585 0.703014 25.7201
RightArm  -26.6998 3.98362 43.5665
RightForeArm  58.2286 -5.59188 2.70204
RightHand  0.748803 -9.39629 -21.8635
LeftUpLeg  -23.9876 4.71313 2.11631
LeftLeg  51.8528 0.347398 0.938036
LeftFoot  -4.96374 0.339023 -5.54886
LeftToes  -7.20997e-011 3.75522e-011 -2.80735e-011
1052
root  2.30413 39.1229 12.0948 2.39508 -54.0889 -2.34894
RightUpLeg  -4.12235 3.07352 1.68213
RightLeg  25.0899 2.98931 1.29703
RightFoot  -16.8614 -0.15275 -0.802875
RightToes  5.38607e-012 1.2921e-014 -6.02303e-014
Spine  -3.73195 -2.18263 4.01416
Spine1  6.58996 -2.53216 1.08538
HEad  23.5173 27.5353 -1.30145
LeftShoulder1  0.926075 -1.66113 -11.7435
LeftArm  -23.2819 -18.6424 -26.5253
LeftForeArm  -13.385 0.502328 -4.15237
LeftHand  -0.0332093 5.12047 4.11457
RightShoulder  1.44405 1.31185 25.1701
RightArm  -24.6792 7.77756 45.6062
RightForeArm  58.617 -5.72491 3.57294
RightHand  0.651681 -8.8436 -22.101
LeftUpLeg  -25.2022 6.03948 1.92336
LeftLeg  41.9235 1.48597 1.81798
LeftFoot  -5.07933 0.329101 -5.45758
LeftToes  -7.20997e-011 3.75522e-011 -2.80735e-011
1053
root  1.12568 39.1566 13.1889 2.16101 -53.9708 -2.0116
RightUpLeg  -0.694562 1.93365 0.962618
RightLeg  23.5359 4.14104 1.74993
RightFoot  -17.5952 -0.161133 -0.771065
RightToes  5.38607e-012 1.2921e-014 -6.02303e-014
Spine  -4.51711 -1.59085 4.33335
Spine1  6.72789 -1.88525 0.239131
HEad  24.5108 26.8357 -1.07823
LeftShoulder1  0.896717 -1.4574 -11.9434
LeftArm  -25.2441 -18.489 -26.9212
LeftForeArm  -12.5309 -2.05179 -3.74043
LeftHand  -0.0443077 4.8096 4.51036
RightShoulder  1.58474 1.82566 24.7818
RightArm  -22.8509 12.0986 47.3159
RightForeArm  58.7264 -5.58795 4.30091
RightHand  0.54273 -8.2853 -22.0286
LeftUpLeg  -25.3557 6.3995 2.1248
LeftLeg  29.6339 3.35057 2.40155
LeftFoot  -2.8529 0.400918 -5.17042
LeftToes  -7.20997e-011 3.75522e-011 -2.80735e-011
1054
root  -0.0410514 39.1085 14.3512 1.97644 -53.7081 -1.65625
RightUpLeg  2.87562 0.663181 0.0470332
RightLeg  21.7063 5.38367 2.13885
RightFoot  -18.383 -0.169127 -0.727794
RightToes  5.38607e-012 1.2921e-014 -6.02303e-014
Spine  -5.41719 -1.23706 4.22288
Spine1  7.07101 -1.56628 -0.117053
HEad  25.1468 26.4471 -1.08244
LeftShoulder1  0.80998 -0.943953 -12.2
LeftArm  -27.6521 -17.558 -27.8989
LeftForeArm  -11.2662 -5.10969 -3.31379
LeftHand  -0.0792478 4.05558 5.38386
RightShoulder  1.69596 2.30394 24.1126
RightArm  -20.2904 16.2376 48.9067
RightForeArm  58.3096 -4.85898 5.49444
RightHand  0.548656 -8.29293 -22.1917
LeftUpLeg  -24.2328 3.45128 3.04091
LeftLeg  15.8351 8.18106 2.93207
LeftFoot  -1.02766 0.540786 -5.92187
LeftToes  -7.20997e-011 3.75522e-011 -2.80735e-011
1055
root  -1.233 38.9774 15.6013 1.89832 -53.4215 -1.53754
RightUpLeg  6.61179 -0.146083 -0.724713
RightLeg  19.9909 6.27134 2.24545
RightFoot  -19.0871 -0.140439 -0.166915
RightToes  5.38607e-012 1.2921e-014 -6.02303e-014
Spine  -6.43446 -0.884923 4.24956
Spine1  7.65522 -1.22374 -0.399734
HEad  25.4092 26.0156 -1.3176
LeftShoulder1  0.744817 -0.500116 -12.7627
LeftArm  -29.5418 -15.9466 -28.783
LeftForeArm  -9.8566 -8.93107 -3.35634
LeftHand  -0.0975119 3.73445 5.74744
RightShoulder  1.78443 2.71115 23.516
RightArm  -19.7495 19.9682 50.5371
RightForeArm  59.3903 -4.54526 5.43442
RightHand  0.432832 -7.69716 -22.1321
LeftUpLeg  -22.6379 1.27947 3.38092
LeftLeg  2.65116 11.3141 2.85426
LeftFoot  -1.30939 0.450327 -5.04039
LeftToes  -7.20997e-011 3.75522e-011 -2.80735e-011
1056
root  -2.44254 38.6992 16.9285 2.03406 -53.2222 -1.78802
RightUpLeg  9.91912 0.032615 -1.15302
RightLeg  19.5227 6.54053 2.29787
RightFoot  -19.995 -0.0570991 1.0342
RightToes  5.38607e-012 1.2921e-014 -6.02303e-014
Spine  -7.23884 -0.431305 4.82028
Spine1  7.97429 -0.672102 -1.1194
HEad  25.6624 25.4737 -1.10865
LeftShoulder1  0.665897 -0.0420116 -13.1148
LeftArm  -30.7222 -14.1317 -30.0025
LeftForeArm  -7.54129 -12.5281 -3.67532
LeftHand  -0.126105 3.24148 6.11333
RightShoulder  1.86408 3.08286 23.0184
RightArm  -18.2129 22.0797 51.5529
RightForeArm  58.3011 -3.09946 6.24115
RightHand  0.442576 -7.7237 -22.3417
LeftUpLeg  -22.1444 0.364051 3.42171
LeftLeg  -5.04794 13.4702 2.41126
LeftFoot  -5.13441 0.308603 -5.12233
LeftToes  -7.20997e-011 3.75522e-011 -2.80735e-011
1057
root  -3.62826 38.2723 18.3054 1.78088 -52.5873 -1.73187
RightUpLeg  12.3752 0.601716 -1.72158
RightLeg  21.3723 6.8726 2.74434
RightFoot  -21.2938 0.0925736 2.71965
RightToes  5.38607e-012 1.2921e-014 -6.02303e-014
Spine  -7.05704 -0.0453496 5.17308
Spine1  7.47066 -0.169649 -1.72406
HEad  25.7133 24.5919 -0.763527
LeftShoulder1  0.560158 0.555265 -13.6364
LeftArm  -31.2807 -12.642 -31.2316
LeftForeArm  -5.38278 -16.0573 -4.13766
LeftHand  -0.158867 2.83697 6.73955
RightShoulder  1.92605 3.32173 22.9011
RightArm  -18.3201 23.2767 52.2361
RightForeArm  57.9271 -1.80054 6.19354
RightHand  0.361967 -7.30428 -22.369
LeftUpLeg  -23.883 0.592055 2.96151
LeftLeg  -1.82515 13.1447 2.29639
LeftFoot  -7.44711 0.283588 -7.02426
LeftToes  -7.20997e-011 3.75522e-011 -2.80735e-011
1058
root  -4.81053 37.9506 19.7329 0.129578 -51.9089 -0.000488281
RightUpLeg  14.3063 1.84492 -2.99429
RightLeg  24.2812 6.51569 2.98753
RightFoot  -21.2913 0.318354 5.31299
RightToes  5.38607e-012 1.2921e-014 -6.02303e-014
Spine  -7.29961 0.441948 4.38429
Spine1  7.98205 0.618561 -2.77494
HEad  25.3262 23.1654 -0.227886
LeftShoulder1  0.467013 1.08849 -14.4019
LeftArm  -30.0498 -11.2902 -32.3797
LeftForeArm  -3.1493 -19.406 -4.62192
LeftHand  -0.177052 2.65719 7.11398
RightShoulder  1.99073 3.46241 23.2784
RightArm  -18.9135 23.1382 52.1086
RightForeArm  57.3518 -0.206049 6.11833
RightHand  0.302279 -6.99536 -22.3749
LeftUpLeg  -25.8587 0.066258 1.25596
LeftLeg  5.54552 11.6166 2.74677
LeftFoot  -1.66846 0.138598 -1.51954
LeftToes  -7.20997e-011 3.75522e-011 -2.80735e-011
